<?xml version="1.0" standalone="no"?>
<!DOCTYPE svg PUBLIC "-//W3C//DTD SVG 20010904//EN"
 "http://www.w3.org/TR/2001/REC-SVG-20010904/DTD/svg10.dtd">
<svg version="1.0" xmlns="http://www.w3.org/2000/svg"
 width="401.000000pt" height="401.000000pt" viewBox="0 0 401.000000 401.000000"
 preserveAspectRatio="xMidYMid meet">
<metadata>
Created by potrace 1.11, written by Peter Selinger 2001-2013
</metadata>
<g transform="translate(0.000000,401.000000) scale(0.100000,-0.100000)"
fill="#000000" stroke="none">
<path d="M1875 4004 c-158 -15 -247 -30 -361 -59 -748 -191 -1313 -780 -1469
-1531 -128 -616 44 -1256 465 -1733 252 -286 625 -512 995 -604 136 -34 306
-60 317 -49 6 6 5 39 -2 83 -6 41 -15 110 -19 154 -5 44 -13 92 -19 107 -6 14
-14 66 -18 115 -13 176 -82 299 -256 460 -26 24 -72 87 -106 145 -77 133 -190
370 -198 416 -13 79 -58 169 -130 264 -41 53 -74 104 -74 113 0 40 24 107 47
130 23 23 33 25 109 25 45 0 94 -4 108 -10 14 -5 26 -7 26 -5 0 3 -15 27 -33
54 -17 26 -48 74 -67 105 -19 32 -52 81 -73 110 -37 49 -38 53 -32 111 9 83
27 119 76 154 49 36 91 40 156 15 24 -9 46 -15 49 -12 2 3 -4 21 -16 40 -11
19 -31 66 -44 104 -13 38 -61 146 -107 239 -75 151 -84 176 -83 224 0 51 3 56
48 98 46 44 49 45 97 41 61 -6 97 -31 124 -84 11 -21 35 -66 53 -98 18 -33 32
-65 32 -71 0 -18 64 -145 113 -223 25 -41 49 -92 52 -114 11 -61 133 -324 173
-370 20 -24 47 -23 73 3 25 25 24 34 -32 219 -22 74 -45 176 -51 225 -7 56
-23 122 -44 175 -51 134 -87 284 -79 333 10 59 51 97 105 97 82 0 112 -34 178
-205 17 -44 41 -116 53 -160 12 -44 34 -108 49 -141 15 -34 36 -97 45 -140 49
-216 95 -353 175 -513 44 -89 80 -165 80 -170 0 -15 82 -101 109 -115 14 -7
41 -16 59 -19 50 -10 50 -11 13 242 -6 34 -17 71 -27 82 -20 22 -48 215 -39
273 10 66 63 190 99 229 30 32 39 37 80 37 32 0 52 -6 65 -19 20 -20 51 -138
51 -196 0 -37 47 -142 74 -164 38 -31 58 -81 60 -149 3 -77 31 -255 51 -322
71 -242 71 -267 5 -372 -23 -37 -77 -147 -120 -245 -43 -98 -99 -220 -125
-270 -44 -85 -48 -100 -52 -180 -4 -73 0 -104 20 -178 14 -49 34 -110 44 -135
11 -25 30 -79 42 -120 35 -113 83 -240 93 -240 15 0 129 60 212 112 692 429
1056 1271 895 2073 -120 599 -502 1108 -1039 1384 -215 110 -397 170 -625 205
-101 15 -356 27 -430 20z"/>
<path d="M1414 2395 c-18 -34 -18 -36 1 -71 11 -20 36 -55 56 -78 28 -31 40
-38 49 -29 9 8 2 33 -30 107 -23 53 -46 98 -50 101 -4 2 -16 -11 -26 -30z"/>
</g>
</svg>
